solid ascii
  facet normal 0.000000e+000 -1.000000e+000 0.000000e+000
    outer loop
      vertex   -1.460500e+001 1.460500e+001 6.032500e+000
      vertex   -1.460500e+001 1.460500e+001 1.270000e+000
      vertex   -4.445000e+000 1.460500e+001 2.857500e+000
    endloop
  endfacet
  facet normal -0.000000e+000 -1.000000e+000 -0.000000e+000
    outer loop
      vertex   -4.445000e+000 1.460500e+001 6.032500e+000
      vertex   -1.460500e+001 1.460500e+001 6.032500e+000
      vertex   -4.445000e+000 1.460500e+001 2.857500e+000
    endloop
  endfacet
  facet normal 5.827942e-017 -1.000000e+000 3.729883e-016
    outer loop
      vertex   1.460500e+001 1.460500e+001 6.032500e+000
      vertex   4.445000e+000 1.460500e+001 2.857500e+000
      vertex   1.460500e+001 1.460500e+001 1.270000e+000
    endloop
  endfacet
  facet normal 0.000000e+000 -1.000000e+000 5.594825e-016
    outer loop
      vertex   1.460500e+001 1.460500e+001 6.032500e+000
      vertex   4.445000e+000 1.460500e+001 6.032500e+000
      vertex   4.445000e+000 1.460500e+001 2.857500e+000
    endloop
  endfacet
  facet normal -0.000000e+000 -1.000000e+000 -0.000000e+000
    outer loop
      vertex   4.445000e+000 1.460500e+001 2.857500e+000
      vertex   -4.445000e+000 1.460500e+001 2.857500e+000
      vertex   1.460500e+001 1.460500e+001 1.270000e+000
    endloop
  endfacet
  facet normal -0.000000e+000 -1.000000e+000 0.000000e+000
    outer loop
      vertex   1.460500e+001 1.460500e+001 1.270000e+000
      vertex   -4.445000e+000 1.460500e+001 2.857500e+000
      vertex   -1.460500e+001 1.460500e+001 1.270000e+000
    endloop
  endfacet
  facet normal -1.000000e+000 0.000000e+000 0.000000e+000
    outer loop
      vertex   1.460500e+001 1.460500e+001 1.270000e+000
      vertex   1.460500e+001 -1.460500e+001 1.270000e+000
      vertex   1.460500e+001 1.460500e+001 6.032500e+000
    endloop
  endfacet
  facet normal -1.000000e+000 -0.000000e+000 0.000000e+000
    outer loop
      vertex   1.460500e+001 1.460500e+001 6.032500e+000
      vertex   1.460500e+001 -1.460500e+001 1.270000e+000
      vertex   1.460500e+001 -1.460500e+001 6.032500e+000
    endloop
  endfacet
  facet normal 3.496765e-016 1.000000e+000 0.000000e+000
    outer loop
      vertex   1.460500e+001 -1.460500e+001 6.032500e+000
      vertex   1.460500e+001 -1.460500e+001 1.270000e+000
      vertex   4.445000e+000 -1.460500e+001 2.857500e+000
    endloop
  endfacet
  facet normal 3.496765e-016 1.000000e+000 0.000000e+000
    outer loop
      vertex   4.445000e+000 -1.460500e+001 6.032500e+000
      vertex   1.460500e+001 -1.460500e+001 6.032500e+000
      vertex   4.445000e+000 -1.460500e+001 2.857500e+000
    endloop
  endfacet
  facet normal 1.748383e-016 1.000000e+000 0.000000e+000
    outer loop
      vertex   -1.460500e+001 -1.460500e+001 6.032500e+000
      vertex   -4.445000e+000 -1.460500e+001 2.857500e+000
      vertex   -1.460500e+001 -1.460500e+001 1.270000e+000
    endloop
  endfacet
  facet normal 1.748383e-016 1.000000e+000 0.000000e+000
    outer loop
      vertex   -1.460500e+001 -1.460500e+001 6.032500e+000
      vertex   -4.445000e+000 -1.460500e+001 6.032500e+000
      vertex   -4.445000e+000 -1.460500e+001 2.857500e+000
    endloop
  endfacet
  facet normal -0.000000e+000 1.000000e+000 1.118965e-015
    outer loop
      vertex   -4.445000e+000 -1.460500e+001 2.857500e+000
      vertex   4.445000e+000 -1.460500e+001 2.857500e+000
      vertex   -1.460500e+001 -1.460500e+001 1.270000e+000
    endloop
  endfacet
  facet normal 1.824399e-016 1.000000e+000 -1.070314e-015
    outer loop
      vertex   -1.460500e+001 -1.460500e+001 1.270000e+000
      vertex   4.445000e+000 -1.460500e+001 2.857500e+000
      vertex   1.460500e+001 -1.460500e+001 1.270000e+000
    endloop
  endfacet
  facet normal 1.000000e+000 -0.000000e+000 0.000000e+000
    outer loop
      vertex   -1.460500e+001 -1.460500e+001 6.032500e+000
      vertex   -1.460500e+001 -1.460500e+001 1.270000e+000
      vertex   -1.460500e+001 -4.445000e+000 2.857500e+000
    endloop
  endfacet
  facet normal 1.000000e+000 0.000000e+000 0.000000e+000
    outer loop
      vertex   -1.460500e+001 -4.445000e+000 6.032500e+000
      vertex   -1.460500e+001 -1.460500e+001 6.032500e+000
      vertex   -1.460500e+001 -4.445000e+000 2.857500e+000
    endloop
  endfacet
  facet normal 1.000000e+000 0.000000e+000 0.000000e+000
    outer loop
      vertex   -1.460500e+001 1.460500e+001 6.032500e+000
      vertex   -1.460500e+001 4.445000e+000 2.857500e+000
      vertex   -1.460500e+001 1.460500e+001 1.270000e+000
    endloop
  endfacet
  facet normal 1.000000e+000 0.000000e+000 0.000000e+000
    outer loop
      vertex   -1.460500e+001 1.460500e+001 6.032500e+000
      vertex   -1.460500e+001 4.445000e+000 6.032500e+000
      vertex   -1.460500e+001 4.445000e+000 2.857500e+000
    endloop
  endfacet
  facet normal 1.000000e+000 0.000000e+000 0.000000e+000
    outer loop
      vertex   -1.460500e+001 4.445000e+000 2.857500e+000
      vertex   -1.460500e+001 -4.445000e+000 2.857500e+000
      vertex   -1.460500e+001 1.460500e+001 1.270000e+000
    endloop
  endfacet
  facet normal 1.000000e+000 0.000000e+000 0.000000e+000
    outer loop
      vertex   -1.460500e+001 1.460500e+001 1.270000e+000
      vertex   -1.460500e+001 -4.445000e+000 2.857500e+000
      vertex   -1.460500e+001 -1.460500e+001 1.270000e+000
    endloop
  endfacet
  facet normal -1.000000e+000 0.000000e+000 0.000000e+000
    outer loop
      vertex   4.445000e+000 -1.460500e+001 2.857500e+000
      vertex   4.445000e+000 -1.587500e+001 2.857500e+000
      vertex   4.445000e+000 -1.460500e+001 6.032500e+000
    endloop
  endfacet
  facet normal -1.000000e+000 -6.993531e-016 2.797412e-016
    outer loop
      vertex   4.445000e+000 -1.460500e+001 6.032500e+000
      vertex   4.445000e+000 -1.587500e+001 2.857500e+000
      vertex   4.445000e+000 -1.587500e+001 6.032500e+000
    endloop
  endfacet
  facet normal -1.000000e+000 2.098059e-015 0.000000e+000
    outer loop
      vertex   4.445000e+000 1.587500e+001 2.857500e+000
      vertex   4.445000e+000 1.460500e+001 2.857500e+000
      vertex   4.445000e+000 1.587500e+001 6.032500e+000
    endloop
  endfacet
  facet normal -1.000000e+000 2.098059e-015 -1.173827e-030
    outer loop
      vertex   4.445000e+000 1.587500e+001 6.032500e+000
      vertex   4.445000e+000 1.460500e+001 2.857500e+000
      vertex   4.445000e+000 1.460500e+001 6.032500e+000
    endloop
  endfacet
  facet normal 1.000000e+000 0.000000e+000 -0.000000e+000
    outer loop
      vertex   1.587500e+001 -1.587500e+001 0.000000e+000
      vertex   1.587500e+001 1.587500e+001 0.000000e+000
      vertex   1.587500e+001 -1.587500e+001 6.032500e+000
    endloop
  endfacet
  facet normal 1.000000e+000 -0.000000e+000 0.000000e+000
    outer loop
      vertex   1.587500e+001 -1.587500e+001 6.032500e+000
      vertex   1.587500e+001 1.587500e+001 0.000000e+000
      vertex   1.587500e+001 1.587500e+001 6.032500e+000
    endloop
  endfacet
  facet normal -0.000000e+000 0.000000e+000 1.000000e+000
    outer loop
      vertex   4.445000e+000 -1.460500e+001 6.032500e+000
      vertex   4.445000e+000 -1.587500e+001 6.032500e+000
      vertex   1.460500e+001 -1.460500e+001 6.032500e+000
    endloop
  endfacet
  facet normal -0.000000e+000 0.000000e+000 1.000000e+000
    outer loop
      vertex   1.460500e+001 -1.460500e+001 6.032500e+000
      vertex   4.445000e+000 -1.587500e+001 6.032500e+000
      vertex   1.587500e+001 -1.587500e+001 6.032500e+000
    endloop
  endfacet
  facet normal -0.000000e+000 0.000000e+000 1.000000e+000
    outer loop
      vertex   1.460500e+001 1.460500e+001 6.032500e+000
      vertex   1.587500e+001 -1.587500e+001 6.032500e+000
      vertex   1.587500e+001 1.587500e+001 6.032500e+000
    endloop
  endfacet
  facet normal -0.000000e+000 0.000000e+000 1.000000e+000
    outer loop
      vertex   4.445000e+000 1.587500e+001 6.032500e+000
      vertex   1.460500e+001 1.460500e+001 6.032500e+000
      vertex   1.587500e+001 1.587500e+001 6.032500e+000
    endloop
  endfacet
  facet normal -0.000000e+000 0.000000e+000 1.000000e+000
    outer loop
      vertex   4.445000e+000 1.587500e+001 6.032500e+000
      vertex   4.445000e+000 1.460500e+001 6.032500e+000
      vertex   1.460500e+001 1.460500e+001 6.032500e+000
    endloop
  endfacet
  facet normal -0.000000e+000 -0.000000e+000 1.000000e+000
    outer loop
      vertex   1.460500e+001 -1.460500e+001 6.032500e+000
      vertex   1.587500e+001 -1.587500e+001 6.032500e+000
      vertex   1.460500e+001 1.460500e+001 6.032500e+000
    endloop
  endfacet
  facet normal 1.000000e+000 0.000000e+000 -0.000000e+000
    outer loop
      vertex   -4.445000e+000 1.460500e+001 2.857500e+000
      vertex   -4.445000e+000 1.587500e+001 2.857500e+000
      vertex   -4.445000e+000 1.460500e+001 6.032500e+000
    endloop
  endfacet
  facet normal 1.000000e+000 6.993531e-016 2.797412e-016
    outer loop
      vertex   -4.445000e+000 1.460500e+001 6.032500e+000
      vertex   -4.445000e+000 1.587500e+001 2.857500e+000
      vertex   -4.445000e+000 1.587500e+001 6.032500e+000
    endloop
  endfacet
  facet normal 0.000000e+000 -1.000000e+000 -2.797412e-016
    outer loop
      vertex   -1.587500e+001 4.445000e+000 2.857500e+000
      vertex   -1.460500e+001 4.445000e+000 2.857500e+000
      vertex   -1.587500e+001 4.445000e+000 6.032500e+000
    endloop
  endfacet
  facet normal 0.000000e+000 -1.000000e+000 -2.797412e-016
    outer loop
      vertex   -1.587500e+001 4.445000e+000 6.032500e+000
      vertex   -1.460500e+001 4.445000e+000 2.857500e+000
      vertex   -1.460500e+001 4.445000e+000 6.032500e+000
    endloop
  endfacet
  facet normal 0.000000e+000 0.000000e+000 1.000000e+000
    outer loop
      vertex   -4.445000e+000 1.460500e+001 6.032500e+000
      vertex   -4.445000e+000 1.587500e+001 6.032500e+000
      vertex   -1.460500e+001 1.460500e+001 6.032500e+000
    endloop
  endfacet
  facet normal 0.000000e+000 -0.000000e+000 1.000000e+000
    outer loop
      vertex   -1.460500e+001 1.460500e+001 6.032500e+000
      vertex   -4.445000e+000 1.587500e+001 6.032500e+000
      vertex   -1.587500e+001 1.587500e+001 6.032500e+000
    endloop
  endfacet
  facet normal 0.000000e+000 -0.000000e+000 1.000000e+000
    outer loop
      vertex   -1.587500e+001 4.445000e+000 6.032500e+000
      vertex   -1.460500e+001 1.460500e+001 6.032500e+000
      vertex   -1.587500e+001 1.587500e+001 6.032500e+000
    endloop
  endfacet
  facet normal 0.000000e+000 0.000000e+000 1.000000e+000
    outer loop
      vertex   -1.587500e+001 4.445000e+000 6.032500e+000
      vertex   -1.460500e+001 4.445000e+000 6.032500e+000
      vertex   -1.460500e+001 1.460500e+001 6.032500e+000
    endloop
  endfacet
  facet normal 1.000000e+000 -2.098059e-015 -2.797412e-016
    outer loop
      vertex   -4.445000e+000 -1.587500e+001 2.857500e+000
      vertex   -4.445000e+000 -1.460500e+001 2.857500e+000
      vertex   -4.445000e+000 -1.587500e+001 6.032500e+000
    endloop
  endfacet
  facet normal 1.000000e+000 -1.398706e-015 0.000000e+000
    outer loop
      vertex   -4.445000e+000 -1.587500e+001 6.032500e+000
      vertex   -4.445000e+000 -1.460500e+001 2.857500e+000
      vertex   -4.445000e+000 -1.460500e+001 6.032500e+000
    endloop
  endfacet
  facet normal -6.993531e-016 1.000000e+000 0.000000e+000
    outer loop
      vertex   -1.460500e+001 -4.445000e+000 2.857500e+000
      vertex   -1.587500e+001 -4.445000e+000 2.857500e+000
      vertex   -1.460500e+001 -4.445000e+000 6.032500e+000
    endloop
  endfacet
  facet normal -6.993531e-016 1.000000e+000 0.000000e+000
    outer loop
      vertex   -1.460500e+001 -4.445000e+000 6.032500e+000
      vertex   -1.587500e+001 -4.445000e+000 2.857500e+000
      vertex   -1.587500e+001 -4.445000e+000 6.032500e+000
    endloop
  endfacet
  facet normal 0.000000e+000 0.000000e+000 1.000000e+000
    outer loop
      vertex   -1.460500e+001 -4.445000e+000 6.032500e+000
      vertex   -1.587500e+001 -4.445000e+000 6.032500e+000
      vertex   -1.460500e+001 -1.460500e+001 6.032500e+000
    endloop
  endfacet
  facet normal 0.000000e+000 0.000000e+000 1.000000e+000
    outer loop
      vertex   -1.460500e+001 -1.460500e+001 6.032500e+000
      vertex   -1.587500e+001 -4.445000e+000 6.032500e+000
      vertex   -1.587500e+001 -1.587500e+001 6.032500e+000
    endloop
  endfacet
  facet normal 0.000000e+000 0.000000e+000 1.000000e+000
    outer loop
      vertex   -4.445000e+000 -1.587500e+001 6.032500e+000
      vertex   -1.460500e+001 -1.460500e+001 6.032500e+000
      vertex   -1.587500e+001 -1.587500e+001 6.032500e+000
    endloop
  endfacet
  facet normal 0.000000e+000 -0.000000e+000 1.000000e+000
    outer loop
      vertex   -4.445000e+000 -1.587500e+001 6.032500e+000
      vertex   -4.445000e+000 -1.460500e+001 6.032500e+000
      vertex   -1.460500e+001 -1.460500e+001 6.032500e+000
    endloop
  endfacet
  facet normal 0.000000e+000 -1.000000e+000 0.000000e+000
    outer loop
      vertex   -1.587500e+001 -1.587500e+001 6.032500e+000
      vertex   -1.587500e+001 -1.587500e+001 0.000000e+000
      vertex   -4.445000e+000 -1.587500e+001 2.857500e+000
    endloop
  endfacet
  facet normal -0.000000e+000 -1.000000e+000 -0.000000e+000
    outer loop
      vertex   -4.445000e+000 -1.587500e+001 6.032500e+000
      vertex   -1.587500e+001 -1.587500e+001 6.032500e+000
      vertex   -4.445000e+000 -1.587500e+001 2.857500e+000
    endloop
  endfacet
  facet normal 0.000000e+000 -1.000000e+000 -0.000000e+000
    outer loop
      vertex   1.587500e+001 -1.587500e+001 6.032500e+000
      vertex   4.445000e+000 -1.587500e+001 2.857500e+000
      vertex   1.587500e+001 -1.587500e+001 0.000000e+000
    endloop
  endfacet
  facet normal -0.000000e+000 -1.000000e+000 0.000000e+000
    outer loop
      vertex   1.587500e+001 -1.587500e+001 6.032500e+000
      vertex   4.445000e+000 -1.587500e+001 6.032500e+000
      vertex   4.445000e+000 -1.587500e+001 2.857500e+000
    endloop
  endfacet
  facet normal -0.000000e+000 -1.000000e+000 -0.000000e+000
    outer loop
      vertex   4.445000e+000 -1.587500e+001 2.857500e+000
      vertex   -4.445000e+000 -1.587500e+001 2.857500e+000
      vertex   1.587500e+001 -1.587500e+001 0.000000e+000
    endloop
  endfacet
  facet normal -0.000000e+000 -1.000000e+000 0.000000e+000
    outer loop
      vertex   1.587500e+001 -1.587500e+001 0.000000e+000
      vertex   -4.445000e+000 -1.587500e+001 2.857500e+000
      vertex   -1.587500e+001 -1.587500e+001 0.000000e+000
    endloop
  endfacet
  facet normal 0.000000e+000 -0.000000e+000 1.000000e+000
    outer loop
      vertex   -4.445000e+000 -1.587500e+001 2.857500e+000
      vertex   4.445000e+000 -1.587500e+001 2.857500e+000
      vertex   -4.445000e+000 -1.460500e+001 2.857500e+000
    endloop
  endfacet
  facet normal -0.000000e+000 0.000000e+000 1.000000e+000
    outer loop
      vertex   -4.445000e+000 -1.460500e+001 2.857500e+000
      vertex   4.445000e+000 -1.587500e+001 2.857500e+000
      vertex   4.445000e+000 -1.460500e+001 2.857500e+000
    endloop
  endfacet
  facet normal -1.000000e+000 -0.000000e+000 -0.000000e+000
    outer loop
      vertex   -1.587500e+001 1.587500e+001 6.032500e+000
      vertex   -1.587500e+001 1.587500e+001 0.000000e+000
      vertex   -1.587500e+001 4.445000e+000 2.857500e+000
    endloop
  endfacet
  facet normal -1.000000e+000 0.000000e+000 -0.000000e+000
    outer loop
      vertex   -1.587500e+001 4.445000e+000 6.032500e+000
      vertex   -1.587500e+001 1.587500e+001 6.032500e+000
      vertex   -1.587500e+001 4.445000e+000 2.857500e+000
    endloop
  endfacet
  facet normal -1.000000e+000 0.000000e+000 -0.000000e+000
    outer loop
      vertex   -1.587500e+001 -1.587500e+001 6.032500e+000
      vertex   -1.587500e+001 -4.445000e+000 2.857500e+000
      vertex   -1.587500e+001 -1.587500e+001 0.000000e+000
    endloop
  endfacet
  facet normal -1.000000e+000 0.000000e+000 0.000000e+000
    outer loop
      vertex   -1.587500e+001 -1.587500e+001 6.032500e+000
      vertex   -1.587500e+001 -4.445000e+000 6.032500e+000
      vertex   -1.587500e+001 -4.445000e+000 2.857500e+000
    endloop
  endfacet
  facet normal -1.000000e+000 0.000000e+000 -0.000000e+000
    outer loop
      vertex   -1.587500e+001 -4.445000e+000 2.857500e+000
      vertex   -1.587500e+001 4.445000e+000 2.857500e+000
      vertex   -1.587500e+001 -1.587500e+001 0.000000e+000
    endloop
  endfacet
  facet normal -1.000000e+000 0.000000e+000 0.000000e+000
    outer loop
      vertex   -1.587500e+001 -1.587500e+001 0.000000e+000
      vertex   -1.587500e+001 4.445000e+000 2.857500e+000
      vertex   -1.587500e+001 1.587500e+001 0.000000e+000
    endloop
  endfacet
  facet normal 0.000000e+000 0.000000e+000 1.000000e+000
    outer loop
      vertex   -1.460500e+001 4.445000e+000 2.857500e+000
      vertex   -1.587500e+001 4.445000e+000 2.857500e+000
      vertex   -1.460500e+001 -4.445000e+000 2.857500e+000
    endloop
  endfacet
  facet normal 0.000000e+000 0.000000e+000 1.000000e+000
    outer loop
      vertex   -1.460500e+001 -4.445000e+000 2.857500e+000
      vertex   -1.587500e+001 4.445000e+000 2.857500e+000
      vertex   -1.587500e+001 -4.445000e+000 2.857500e+000
    endloop
  endfacet
  facet normal 0.000000e+000 1.000000e+000 0.000000e+000
    outer loop
      vertex   1.587500e+001 1.587500e+001 6.032500e+000
      vertex   1.587500e+001 1.587500e+001 0.000000e+000
      vertex   4.445000e+000 1.587500e+001 2.857500e+000
    endloop
  endfacet
  facet normal -0.000000e+000 1.000000e+000 0.000000e+000
    outer loop
      vertex   4.445000e+000 1.587500e+001 6.032500e+000
      vertex   1.587500e+001 1.587500e+001 6.032500e+000
      vertex   4.445000e+000 1.587500e+001 2.857500e+000
    endloop
  endfacet
  facet normal 0.000000e+000 1.000000e+000 0.000000e+000
    outer loop
      vertex   -1.587500e+001 1.587500e+001 6.032500e+000
      vertex   -4.445000e+000 1.587500e+001 2.857500e+000
      vertex   -1.587500e+001 1.587500e+001 0.000000e+000
    endloop
  endfacet
  facet normal -0.000000e+000 1.000000e+000 0.000000e+000
    outer loop
      vertex   -1.587500e+001 1.587500e+001 6.032500e+000
      vertex   -4.445000e+000 1.587500e+001 6.032500e+000
      vertex   -4.445000e+000 1.587500e+001 2.857500e+000
    endloop
  endfacet
  facet normal -0.000000e+000 1.000000e+000 0.000000e+000
    outer loop
      vertex   -4.445000e+000 1.587500e+001 2.857500e+000
      vertex   4.445000e+000 1.587500e+001 2.857500e+000
      vertex   -1.587500e+001 1.587500e+001 0.000000e+000
    endloop
  endfacet
  facet normal -0.000000e+000 1.000000e+000 0.000000e+000
    outer loop
      vertex   -1.587500e+001 1.587500e+001 0.000000e+000
      vertex   4.445000e+000 1.587500e+001 2.857500e+000
      vertex   1.587500e+001 1.587500e+001 0.000000e+000
    endloop
  endfacet
  facet normal 0.000000e+000 0.000000e+000 1.000000e+000
    outer loop
      vertex   4.445000e+000 1.587500e+001 2.857500e+000
      vertex   -4.445000e+000 1.587500e+001 2.857500e+000
      vertex   4.445000e+000 1.460500e+001 2.857500e+000
    endloop
  endfacet
  facet normal 0.000000e+000 0.000000e+000 1.000000e+000
    outer loop
      vertex   4.445000e+000 1.460500e+001 2.857500e+000
      vertex   -4.445000e+000 1.587500e+001 2.857500e+000
      vertex   -4.445000e+000 1.460500e+001 2.857500e+000
    endloop
  endfacet
  facet normal -0.000000e+000 -0.000000e+000 1.000000e+000
    outer loop
      vertex   -1.460500e+001 -1.460500e+001 1.270000e+000
      vertex   1.460500e+001 -1.460500e+001 1.270000e+000
      vertex   -1.460500e+001 1.460500e+001 1.270000e+000
    endloop
  endfacet
  facet normal -0.000000e+000 0.000000e+000 1.000000e+000
    outer loop
      vertex   -1.460500e+001 1.460500e+001 1.270000e+000
      vertex   1.460500e+001 -1.460500e+001 1.270000e+000
      vertex   1.460500e+001 1.460500e+001 1.270000e+000
    endloop
  endfacet
  facet normal 0.000000e+000 -0.000000e+000 -1.000000e+000
    outer loop
      vertex   -1.587500e+001 1.587500e+001 0.000000e+000
      vertex   1.587500e+001 1.587500e+001 0.000000e+000
      vertex   -1.587500e+001 -1.587500e+001 0.000000e+000
    endloop
  endfacet
  facet normal 0.000000e+000 0.000000e+000 -1.000000e+000
    outer loop
      vertex   -1.587500e+001 -1.587500e+001 0.000000e+000
      vertex   1.587500e+001 1.587500e+001 0.000000e+000
      vertex   1.587500e+001 -1.587500e+001 0.000000e+000
    endloop
  endfacet
endsolid
