G75*
%MOIN*%
%OFA0B0*%
%FSLAX24Y24*%
%IPPOS*%
%LPD*%
%AMOC8*
5,1,8,0,0,1.08239X$1,22.5*
%
%ADD10C,0.0000*%
%ADD11C,0.0040*%
%ADD12C,0.0050*%
%ADD13C,0.0020*%
%ADD14C,0.0060*%
%ADD15C,0.0030*%
D10*
X000100Y000100D02*
X003600Y000100D01*
X003600Y002430D01*
X007100Y002430D01*
X007100Y000100D01*
X010600Y000100D01*
X010600Y010600D01*
X000100Y010600D01*
X000100Y000100D01*
X000599Y009550D02*
X000601Y009597D01*
X000607Y009643D01*
X000617Y009689D01*
X000630Y009734D01*
X000648Y009777D01*
X000669Y009819D01*
X000693Y009859D01*
X000721Y009896D01*
X000752Y009931D01*
X000786Y009964D01*
X000822Y009993D01*
X000861Y010019D01*
X000902Y010042D01*
X000945Y010061D01*
X000989Y010077D01*
X001034Y010089D01*
X001080Y010097D01*
X001127Y010101D01*
X001173Y010101D01*
X001220Y010097D01*
X001266Y010089D01*
X001311Y010077D01*
X001355Y010061D01*
X001398Y010042D01*
X001439Y010019D01*
X001478Y009993D01*
X001514Y009964D01*
X001548Y009931D01*
X001579Y009896D01*
X001607Y009859D01*
X001631Y009819D01*
X001652Y009777D01*
X001670Y009734D01*
X001683Y009689D01*
X001693Y009643D01*
X001699Y009597D01*
X001701Y009550D01*
X001699Y009503D01*
X001693Y009457D01*
X001683Y009411D01*
X001670Y009366D01*
X001652Y009323D01*
X001631Y009281D01*
X001607Y009241D01*
X001579Y009204D01*
X001548Y009169D01*
X001514Y009136D01*
X001478Y009107D01*
X001439Y009081D01*
X001398Y009058D01*
X001355Y009039D01*
X001311Y009023D01*
X001266Y009011D01*
X001220Y009003D01*
X001173Y008999D01*
X001127Y008999D01*
X001080Y009003D01*
X001034Y009011D01*
X000989Y009023D01*
X000945Y009039D01*
X000902Y009058D01*
X000861Y009081D01*
X000822Y009107D01*
X000786Y009136D01*
X000752Y009169D01*
X000721Y009204D01*
X000693Y009241D01*
X000669Y009281D01*
X000648Y009323D01*
X000630Y009366D01*
X000617Y009411D01*
X000607Y009457D01*
X000601Y009503D01*
X000599Y009550D01*
X008999Y001150D02*
X009001Y001197D01*
X009007Y001243D01*
X009017Y001289D01*
X009030Y001334D01*
X009048Y001377D01*
X009069Y001419D01*
X009093Y001459D01*
X009121Y001496D01*
X009152Y001531D01*
X009186Y001564D01*
X009222Y001593D01*
X009261Y001619D01*
X009302Y001642D01*
X009345Y001661D01*
X009389Y001677D01*
X009434Y001689D01*
X009480Y001697D01*
X009527Y001701D01*
X009573Y001701D01*
X009620Y001697D01*
X009666Y001689D01*
X009711Y001677D01*
X009755Y001661D01*
X009798Y001642D01*
X009839Y001619D01*
X009878Y001593D01*
X009914Y001564D01*
X009948Y001531D01*
X009979Y001496D01*
X010007Y001459D01*
X010031Y001419D01*
X010052Y001377D01*
X010070Y001334D01*
X010083Y001289D01*
X010093Y001243D01*
X010099Y001197D01*
X010101Y001150D01*
X010099Y001103D01*
X010093Y001057D01*
X010083Y001011D01*
X010070Y000966D01*
X010052Y000923D01*
X010031Y000881D01*
X010007Y000841D01*
X009979Y000804D01*
X009948Y000769D01*
X009914Y000736D01*
X009878Y000707D01*
X009839Y000681D01*
X009798Y000658D01*
X009755Y000639D01*
X009711Y000623D01*
X009666Y000611D01*
X009620Y000603D01*
X009573Y000599D01*
X009527Y000599D01*
X009480Y000603D01*
X009434Y000611D01*
X009389Y000623D01*
X009345Y000639D01*
X009302Y000658D01*
X009261Y000681D01*
X009222Y000707D01*
X009186Y000736D01*
X009152Y000769D01*
X009121Y000804D01*
X009093Y000841D01*
X009069Y000881D01*
X009048Y000923D01*
X009030Y000966D01*
X009017Y001011D01*
X009007Y001057D01*
X009001Y001103D01*
X008999Y001150D01*
D11*
X003330Y002199D02*
X002870Y002199D01*
X002870Y002429D01*
X002946Y002506D01*
X003100Y002506D01*
X003177Y002429D01*
X003177Y002199D01*
X003177Y002353D02*
X003330Y002506D01*
X003330Y002660D02*
X003330Y002967D01*
X003330Y002813D02*
X002870Y002813D01*
X003023Y002660D01*
X001830Y002736D02*
X001830Y002890D01*
X001753Y002967D01*
X001446Y002967D01*
X001370Y002890D01*
X001370Y002736D01*
X001446Y002660D01*
X001523Y002660D01*
X001600Y002736D01*
X001600Y002967D01*
X001830Y002736D02*
X001753Y002660D01*
X001753Y002506D02*
X001677Y002506D01*
X001600Y002429D01*
X001600Y002353D01*
X001600Y002429D02*
X001523Y002506D01*
X001446Y002506D01*
X001370Y002429D01*
X001370Y002276D01*
X001446Y002199D01*
X001753Y002199D02*
X001830Y002276D01*
X001830Y002429D01*
X001753Y002506D01*
X002322Y008245D02*
X002475Y008245D01*
X002552Y008322D01*
X002705Y008245D02*
X003012Y008245D01*
X002859Y008245D02*
X002859Y008705D01*
X002705Y008552D01*
X002552Y008629D02*
X002475Y008705D01*
X002322Y008705D01*
X002245Y008629D01*
X002245Y008322D01*
X002322Y008245D01*
D12*
X004681Y005901D02*
X005547Y005901D01*
X005547Y004996D01*
X005350Y004799D01*
X004681Y004799D01*
X004681Y005901D01*
X005547Y005901D02*
X006019Y005901D01*
X006019Y004799D01*
X005547Y004799D01*
X005350Y004799D01*
X005547Y004799D02*
X005547Y004996D01*
D13*
X005243Y006029D02*
X005133Y006029D01*
X005133Y006249D01*
X005243Y006249D01*
X005279Y006213D01*
X005279Y006066D01*
X005243Y006029D01*
X005058Y006029D02*
X004912Y006029D01*
X004912Y006249D01*
X005058Y006249D01*
X004985Y006139D02*
X004912Y006139D01*
X004838Y006029D02*
X004691Y006029D01*
X004691Y006249D01*
D14*
X008640Y009000D02*
X009060Y009000D01*
X009060Y010200D02*
X008970Y010200D01*
X008730Y010200D01*
X008640Y010200D01*
X008730Y010200D02*
X008732Y010179D01*
X008737Y010159D01*
X008746Y010140D01*
X008758Y010123D01*
X008773Y010108D01*
X008790Y010096D01*
X008809Y010087D01*
X008829Y010082D01*
X008850Y010080D01*
X008871Y010082D01*
X008891Y010087D01*
X008910Y010096D01*
X008927Y010108D01*
X008942Y010123D01*
X008954Y010140D01*
X008963Y010159D01*
X008968Y010179D01*
X008970Y010200D01*
D15*
X008339Y010233D02*
X008025Y010547D01*
X008025Y010390D02*
X008339Y010390D01*
X008339Y010547D02*
X008025Y010233D01*
X008182Y010233D02*
X008182Y010547D01*
M02*
