%
M48
M72
T01C0.0236
T02C0.0512
T03C0.1102
%
T01
X975Y2100
X975Y2725
X2100Y4350
X3100Y4350
X3850Y4475
X2600Y5350
X3100Y5850
X5350Y8350
X3975Y8475
X3475Y3225
X6850Y6225
X7600Y7725
X8100Y7725
X8100Y8225
X7600Y8225
X7100Y8225
X8600Y8225
X8600Y7725
X9100Y8225
X9850Y8225
X9975Y9975
X8475Y6350
X8475Y5350
T02
X2100Y1100
X1100Y1100
X1100Y8100
X3100Y9100
X8100Y3100
X8100Y2100
X9100Y3100
T03
X9550Y1150
X1150Y9550
M30
